<?xml version="1.0" standalone="no"?>
<!DOCTYPE svg PUBLIC "-//W3C//DTD SVG 20010904//EN"
 "http://www.w3.org/TR/2001/REC-SVG-20010904/DTD/svg10.dtd">
<svg version="1.0" xmlns="http://www.w3.org/2000/svg"
 width="512.000000pt" height="512.000000pt" viewBox="0 0 512.000000 512.000000"
 preserveAspectRatio="xMidYMid meet">

<g transform="translate(0.000000,512.000000) scale(0.100000,-0.100000)"
fill="#000000" stroke="none">
<path d="M2315 5109 c-797 -81 -1501 -518 -1927 -1196 -469 -746 -515 -1705
-119 -2493 453 -902 1383 -1455 2381 -1416 386 14 714 97 1050 265 610 305
1077 844 1290 1489 91 276 125 491 125 797 0 259 -17 403 -75 631 -49 193 -93
313 -185 499 -123 251 -262 448 -459 652 -399 413 -897 669 -1476 758 -125 19
-477 28 -605 14z m584 -184 c410 -60 818 -236 1145 -493 99 -77 330 -311 403
-407 154 -204 294 -461 367 -671 93 -273 130 -497 130 -794 0 -243 -15 -369
-69 -585 -170 -674 -637 -1250 -1260 -1555 -239 -117 -459 -186 -720 -226
-166 -25 -502 -25 -670 0 -530 80 -1009 324 -1375 702 -191 196 -317 377 -435
619 -113 231 -185 461 -221 710 -25 165 -25 505 0 670 20 136 70 338 116 470
72 207 232 494 378 679 77 99 311 330 407 403 351 264 769 438 1165 482 52 6
111 13 130 15 72 9 409 -4 509 -19z"/>
<path d="M2395 4774 c-321 -34 -553 -98 -810 -224 -454 -222 -813 -586 -1030
-1043 -144 -303 -209 -599 -209 -947 0 -362 67 -655 224 -975 324 -662 937
-1108 1680 -1222 156 -23 461 -23 624 1 463 68 886 274 1221 598 194 187 335
379 455 623 106 216 168 416 207 665 23 157 24 462 0 620 -75 491 -284 907
-632 1255 -345 346 -763 557 -1245 630 -103 15 -406 27 -485 19z m340 -174
c1190 -108 2036 -1195 1845 -2369 -141 -865 -824 -1547 -1692 -1691 -710 -117
-1430 151 -1896 705 -787 937 -579 2350 447 3027 376 249 850 368 1296 328z"/>
<path d="M2472 4353 l3 -168 85 0 85 0 3 168 2 167 -90 0 -90 0 2 -167z"/>
<path d="M2050 4457 c-41 -11 -76 -21 -78 -23 -2 -1 12 -57 30 -124 l33 -122
28 6 c15 3 52 13 83 22 43 12 54 19 50 32 -3 9 -17 62 -32 117 -14 55 -29 103
-32 106 -4 3 -41 -4 -82 -14z"/>
<path d="M2956 4368 c-15 -57 -29 -111 -32 -120 -4 -13 7 -20 50 -32 31 -9 68
-19 84 -22 l28 -6 29 114 c17 62 30 117 30 123 0 10 -104 43 -141 44 -18 1
-24 -12 -48 -101z"/>
<path d="M1585 4264 c-33 -20 -64 -40 -69 -44 -5 -5 28 -72 75 -153 l84 -145
60 34 c33 19 66 38 74 43 11 7 -4 40 -70 154 -46 81 -86 147 -89 146 -3 0 -32
-16 -65 -35z"/>
<path d="M3381 4154 c-67 -116 -81 -148 -70 -155 8 -5 41 -24 74 -43 l60 -34
83 144 c46 79 81 148 78 153 -6 8 -129 81 -138 81 -1 0 -41 -66 -87 -146z"/>
<path d="M1172 3947 l-62 -62 90 -90 90 -90 62 63 63 62 -90 90 -90 90 -63
-63z"/>
<path d="M2410 4004 c-645 -82 -1137 -530 -1272 -1157 -32 -148 -32 -428 0
-574 28 -128 72 -253 129 -366 34 -69 51 -91 74 -101 40 -17 75 -9 99 22 28
35 25 62 -19 150 -150 299 -180 625 -86 947 109 375 414 700 782 834 151 55
271 76 443 76 358 -1 650 -122 901 -374 206 -207 323 -437 365 -723 19 -128
14 -316 -11 -428 -21 -95 -19 -123 10 -150 32 -31 87 -32 116 -4 63 63 88 482
41 693 -32 141 -73 256 -137 379 -201 387 -564 662 -993 752 -95 20 -359 34
-442 24z"/>
<path d="M3790 3915 l-85 -85 63 -62 62 -63 90 90 90 90 -57 57 c-32 32 -62
58 -68 58 -6 0 -49 -38 -95 -85z"/>
<path d="M859 3540 c-23 -39 -40 -72 -38 -74 2 -2 69 -40 148 -86 113 -66 145
-80 152 -69 5 8 24 41 43 74 l34 60 -142 83 c-79 45 -146 82 -149 82 -3 0 -25
-32 -48 -70z"/>
<path d="M4063 3527 l-141 -82 34 -60 c19 -33 38 -66 43 -74 7 -12 38 2 152
68 79 46 146 85 148 87 5 5 -79 144 -87 144 -4 -1 -71 -38 -149 -83z"/>
<path d="M665 3073 c-10 -43 -18 -80 -17 -83 1 -6 235 -71 239 -66 7 6 46 157
42 160 -4 3 -233 66 -241 66 -2 0 -13 -35 -23 -77z"/>
<path d="M4305 3117 c-60 -17 -112 -32 -114 -33 -4 -3 35 -154 42 -160 3 -4
226 54 238 62 10 6 -34 164 -46 163 -5 -1 -59 -15 -120 -32z"/>
<path d="M2459 2885 c-195 -63 -292 -281 -206 -468 45 -98 130 -166 239 -188
29 -6 323 -107 653 -225 331 -118 609 -214 619 -214 24 0 76 54 76 79 0 11 -5
31 -11 44 -6 13 -226 198 -489 413 -263 214 -481 396 -485 405 -12 34 -99 112
-153 136 -69 32 -175 40 -243 18z m181 -178 c51 -27 90 -90 90 -147 0 -87 -83
-170 -170 -170 -87 0 -170 83 -170 170 0 57 39 120 90 147 55 29 105 29 160 0z
m470 -412 c111 -91 200 -165 197 -165 -11 0 -493 173 -500 180 -4 4 3 21 18
38 14 17 35 51 46 76 11 26 24 44 29 41 5 -3 100 -80 210 -170z"/>
<path d="M600 2560 l0 -90 168 2 167 3 0 85 0 85 -167 3 -168 2 0 -90z"/>
<path d="M4184 2637 c-3 -8 -4 -47 -2 -88 l3 -74 168 -3 167 -2 0 90 0 90
-165 0 c-129 0 -167 -3 -171 -13z"/>
<path d="M762 2167 c-63 -18 -113 -36 -113 -42 0 -11 33 -149 36 -153 2 -3
238 59 244 64 2 2 -1 21 -7 41 -6 21 -16 57 -22 81 -6 23 -14 42 -18 41 -4 0
-58 -15 -120 -32z"/>
<path d="M4216 2146 c-9 -31 -19 -68 -22 -83 l-6 -28 114 -30 c62 -17 117 -30
123 -30 10 0 43 104 44 141 1 19 -12 25 -101 48 -57 15 -111 29 -120 32 -13 4
-20 -7 -32 -50z"/>
<path d="M965 1738 c-77 -44 -142 -82 -144 -84 -5 -4 78 -144 86 -144 3 0 70
37 149 82 l143 83 -31 55 c-46 80 -52 90 -58 90 -3 0 -68 -37 -145 -82z"/>
<path d="M3963 1748 l-41 -72 136 -79 c76 -44 142 -81 149 -84 10 -4 100 134
91 142 -7 6 -268 155 -280 160 -9 4 -28 -19 -55 -67z"/>
<path d="M2141 1699 c-76 -13 -183 -72 -236 -131 -231 -257 -85 -656 259 -709
40 -6 215 -9 443 -7 337 4 383 6 428 23 157 58 256 175 286 338 24 129 -22
270 -120 367 -66 65 -144 105 -232 119 -78 13 -751 12 -828 0z m878 -194 c89
-49 135 -126 135 -225 0 -99 -46 -176 -135 -225 l-54 -30 -350 -3 c-192 -2
-378 -1 -412 3 -151 16 -260 151 -237 295 15 96 107 192 202 211 20 4 208 7
417 6 l380 -2 54 -30z"/>
<path d="M2192 1359 c-22 -7 -38 -21 -49 -44 -16 -33 -16 -37 0 -70 21 -45 71
-59 189 -53 75 4 91 8 113 28 35 32 34 88 0 120 -23 22 -36 25 -123 27 -53 1
-112 -2 -130 -8z"/>
<path d="M2715 1363 c-65 -16 -88 -98 -40 -143 22 -20 38 -24 113 -28 118 -6
168 8 189 53 16 32 16 38 0 69 -12 26 -26 37 -54 45 -38 11 -170 13 -208 4z"/>
</g>
</svg>
