<?xml version="1.0" standalone="no"?>
<!DOCTYPE svg PUBLIC "-//W3C//DTD SVG 20010904//EN"
 "http://www.w3.org/TR/2001/REC-SVG-20010904/DTD/svg10.dtd">
<svg version="1.0" xmlns="http://www.w3.org/2000/svg"
 width="20" height="20" viewBox="0 0 512.000000 512.000000"
 preserveAspectRatio="xMidYMid meet">

<g transform="translate(0.000000,512.000000) scale(0.100000,-0.100000)"
fill="#ffffffff" stroke="none">
<path d="M2283 4911 c-106 -18 -193 -118 -193 -222 l0 -48 -80 -17 c-157 -34
-170 -55 -170 -278 0 -224 11 -243 156 -276 l94 -22 0 -47 c0 -92 80 -198 161
-215 13 -3 36 -7 51 -10 l26 -6 4 -162 c3 -181 9 -198 74 -239 l34 -21 0 -658
0 -659 -432 -3 c-421 -3 -434 -4 -480 -25 -65 -30 -142 -104 -166 -161 -11
-26 -77 -326 -147 -667 -140 -684 -141 -693 -92 -791 32 -63 111 -136 175
-161 44 -17 109 -18 1217 -21 796 -2 1192 1 1239 8 163 25 265 134 273 290 4
69 -8 129 -141 705 -141 610 -146 631 -183 685 -44 63 -118 113 -195 129 -27
6 -139 11 -248 11 l-200 0 0 664 c0 634 1 665 18 670 10 4 32 20 48 37 l29 30
3 170 3 169 27 5 c105 22 155 55 195 129 22 40 22 48 22 441 0 391 0 401 -22
440 -27 51 -67 89 -118 112 -36 16 -80 18 -490 20 -247 0 -469 -2 -492 -6z
m118 -358 c51 -390 41 -378 339 -378 195 0 210 1 236 21 62 46 65 56 100 336
18 145 34 266 34 271 0 13 100 7 130 -8 59 -31 60 -37 60 -450 0 -317 -2 -381
-15 -405 -31 -60 -29 -60 -537 -60 -350 0 -469 3 -488 13 -13 7 -35 28 -47 46
-23 34 -23 35 -23 406 0 371 0 372 23 406 28 42 60 59 113 59 l41 0 34 -257z
m593 155 c-7 -57 -20 -170 -30 -252 -13 -115 -22 -154 -36 -168 -16 -16 -37
-18 -186 -18 -119 0 -173 4 -185 13 -14 9 -25 66 -52 265 -19 139 -35 255 -35
258 0 2 121 4 268 4 l269 0 -13 -102z m-904 -363 c0 -207 7 -193 -80 -174 -30
6 -54 18 -60 29 -15 28 -13 272 3 293 12 16 69 34 115 36 l22 1 0 -185z m970
-725 c0 -137 -2 -150 -19 -160 -12 -6 -123 -10 -291 -10 -168 0 -279 4 -291
10 -17 10 -19 23 -19 160 l0 150 310 0 310 0 0 -150z m-100 -1018 c0 -412 -3
-940 -7 -1173 l-6 -424 -28 -27 -27 -28 -147 0 -147 0 -29 29 -29 29 0 1171 0
1171 210 0 210 0 0 -748z m-825 -704 c-15 -69 -136 -1150 -132 -1189 6 -66 47
-133 105 -166 l47 -28 555 -3 c420 -2 566 0 600 10 30 8 60 27 91 58 81 81 81
59 -5 715 -42 314 -78 582 -81 598 l-5 27 96 0 c74 0 103 -4 133 -19 40 -21
95 -78 105 -108 24 -76 286 -1245 286 -1275 0 -78 -51 -155 -125 -189 -38 -18
-93 -19 -1244 -19 -1202 0 -1205 0 -1248 21 -70 34 -123 115 -123 189 0 50
253 1257 271 1292 19 38 66 80 109 97 14 5 144 10 298 10 l272 1 -5 -22z m300
-435 l0 -458 24 -49 c16 -33 38 -57 69 -77 l46 -29 168 0 c208 0 242 12 292
105 20 39 21 52 24 503 l3 462 74 0 c41 0 75 -2 75 -5 0 -3 34 -259 75 -570
41 -310 75 -587 75 -614 0 -41 -5 -54 -29 -79 -17 -16 -44 -32 -62 -36 -17 -3
-264 -6 -548 -6 -577 0 -567 -1 -605 70 -19 35 -19 35 48 600 36 311 69 582
72 603 l6 37 96 0 97 0 0 -457z"/>
<path d="M1656 1698 c-20 -29 -20 -34 4 -58 29 -29 186 -30 221 -1 20 16 22
23 14 47 l-10 29 -107 3 c-101 3 -107 1 -122 -20z"/>
<path d="M1594 1395 c-15 -23 -15 -27 0 -50 16 -24 21 -25 115 -25 82 0 101 3
114 18 22 24 21 45 -1 65 -15 13 -39 17 -115 17 -92 0 -97 -1 -113 -25z"/>
<path d="M1540 1100 c-24 -24 -25 -39 -6 -66 12 -16 29 -20 110 -22 109 -4
146 9 146 53 0 41 -34 55 -137 55 -80 0 -96 -3 -113 -20z"/>
<path d="M1470 791 c-30 -58 2 -81 114 -81 101 0 126 9 126 48 0 46 -15 52
-127 52 -91 0 -103 -2 -113 -19z"/>
</g>
</svg>
