<?xml version="1.0" standalone="no"?>
<!DOCTYPE svg PUBLIC "-//W3C//DTD SVG 20010904//EN"
 "http://www.w3.org/TR/2001/REC-SVG-20010904/DTD/svg10.dtd">
<svg version="1.0" xmlns="http://www.w3.org/2000/svg"
 width="512.000000pt" height="512.000000pt" viewBox="0 0 512.000000 512.000000"
 preserveAspectRatio="xMidYMid meet">

<g transform="translate(0.000000,512.000000) scale(0.100000,-0.100000)"
fill="#000000" stroke="none">
<path d="M2370 5113 c-379 -36 -661 -116 -980 -278 -378 -193 -717 -497 -965
-865 -42 -63 -114 -191 -160 -285 -166 -336 -247 -657 -262 -1030 -22 -579
158 -1157 508 -1629 92 -123 154 -145 214 -74 41 48 34 84 -33 175 -268 362
-419 735 -472 1167 -16 127 -13 431 4 561 73 546 311 1017 704 1396 380 367
834 582 1367 649 125 16 428 14 560 -4 546 -73 1014 -309 1395 -702 361 -372
589 -851 650 -1363 14 -121 14 -421 0 -542 -52 -436 -237 -871 -515 -1214 -97
-119 -286 -302 -406 -392 -340 -255 -731 -412 -1152 -463 -114 -14 -405 -14
-527 0 -422 47 -812 204 -1173 472 -91 67 -127 74 -175 33 -71 -60 -49 -122
74 -214 385 -286 833 -456 1319 -501 454 -42 926 48 1344 256 269 133 459 271
677 488 217 218 355 408 488 677 354 712 354 1546 0 2258 -124 250 -263 447
-458 648 -216 224 -428 378 -711 518 -296 146 -572 225 -900 255 -102 9 -333
11 -415 3z"/>
<path d="M2385 4429 c-817 -76 -1501 -691 -1664 -1495 -65 -321 -45 -655 59
-967 185 -556 629 -1000 1186 -1186 588 -196 1217 -94 1719 279 302 225 538
551 654 907 131 396 129 801 -3 1199 -86 255 -293 595 -382 624 -48 16 -103
-11 -122 -61 -17 -46 -6 -72 88 -199 127 -173 229 -409 282 -650 19 -91 22
-133 22 -320 0 -241 -13 -329 -80 -530 -190 -574 -687 -1004 -1289 -1116 -152
-29 -472 -26 -615 5 -611 131 -1080 548 -1269 1126 -61 189 -76 289 -76 515 0
226 15 326 76 515 167 512 562 907 1074 1074 189 61 289 76 515 76 348 0 509
-45 912 -257 32 -17 42 -18 73 -8 69 23 95 111 48 162 -24 27 -195 122 -291
163 -293 123 -608 173 -917 144z"/>
<path d="M2489 3721 c-29 -29 -29 -31 -29 -139 l0 -109 -42 -12 c-214 -63
-368 -269 -368 -491 0 -224 153 -427 368 -491 l42 -12 0 -304 0 -304 -51 28
c-89 48 -133 117 -154 242 -16 91 -42 121 -106 121 -31 0 -47 -7 -70 -29 -25
-25 -29 -37 -29 -83 0 -210 159 -417 368 -479 l42 -12 0 -109 c0 -108 0 -110
29 -139 41 -41 101 -41 142 0 29 29 29 31 29 139 l0 109 43 12 c74 22 160 74
217 131 199 199 199 523 1 721 -57 57 -164 120 -228 134 l-33 7 0 303 c0 286
1 304 18 298 40 -15 103 -66 132 -107 30 -45 60 -137 60 -189 0 -45 48 -87
100 -87 33 0 48 6 71 29 25 25 29 37 29 83 0 210 -159 417 -367 479 l-43 12 0
109 c0 108 0 110 -29 139 -23 23 -38 29 -71 29 -33 0 -48 -6 -71 -29z m-31
-896 l-3 -145 -40 21 c-124 65 -186 203 -151 339 21 82 68 147 137 188 l54 33
3 -146 c1 -80 1 -210 0 -290z m306 -446 c52 -46 91 -122 100 -194 13 -102 -42
-225 -127 -283 -84 -57 -77 -78 -77 248 l0 289 30 -10 c16 -6 49 -28 74 -50z"/>
</g>
</svg>
