<?xml version="1.0" standalone="no"?>
<!DOCTYPE svg PUBLIC "-//W3C//DTD SVG 20010904//EN"
 "http://www.w3.org/TR/2001/REC-SVG-20010904/DTD/svg10.dtd">
<svg version="1.0" xmlns="http://www.w3.org/2000/svg"
 width="512.000000pt" height="512.000000pt" viewBox="0 0 512.000000 512.000000"
 preserveAspectRatio="xMidYMid meet">

<g transform="translate(0.000000,512.000000) scale(0.100000,-0.100000)"
fill="#000000" stroke="none">
<path d="M799 4664 l-24 -26 -3 -1859 -2 -1859 -139 0 c-135 0 -140 -1 -170
-26 l-31 -26 0 -194 c0 -194 0 -195 25 -219 l24 -25 1749 0 1749 0 24 26 c23
25 24 31 27 201 5 260 2 263 -213 263 l-135 0 0 470 0 470 88 0 c103 0 150
-12 192 -46 52 -44 55 -57 60 -254 6 -211 15 -243 90 -324 55 -60 92 -82 171
-102 124 -32 263 18 341 121 72 96 68 10 68 1304 l0 1166 -104 100 c-57 55
-213 207 -348 337 -135 131 -257 242 -271 247 -51 20 -107 -22 -107 -78 0 -33
11 -47 120 -156 l120 -120 0 -297 c0 -354 4 -374 99 -469 72 -71 140 -99 246
-99 l75 0 0 -887 c0 -881 0 -888 -21 -922 -67 -110 -204 -114 -283 -7 -19 25
-22 46 -26 214 -7 211 -15 244 -86 322 -80 88 -166 120 -326 120 l-98 0 0
1295 c0 1380 1 1341 -45 1359 -9 3 -645 6 -1414 6 l-1398 0 -24 -26z m2711
-1944 l0 -1800 -1285 0 -1285 0 0 1800 0 1800 1285 0 1285 0 0 -1800z m1010
783 l0 -143 -69 0 c-75 0 -115 19 -155 73 -20 26 -21 43 -24 245 l-3 217 126
-125 125 -125 0 -142z m-662 -2830 l3 -73 -1631 0 -1630 0 0 75 0 75 1628 -2
1627 -3 3 -72z"/>
<path d="M1143 4326 l-28 -24 0 -635 0 -635 24 -26 24 -26 1058 0 c582 0 1065
3 1074 6 44 17 45 28 45 683 l0 619 -26 31 -26 31 -1058 0 -1059 0 -28 -24z
m2027 -661 l0 -515 -940 0 -940 0 0 515 0 515 940 0 940 0 0 -515z"/>
<path d="M2960 2597 c-62 -17 -112 -50 -154 -99 -65 -75 -66 -84 -66 -558 l0
-427 31 -61 c52 -104 144 -162 260 -162 126 0 222 58 276 168 l28 57 0 425 c0
395 -1 429 -19 475 -53 137 -217 221 -356 182z m150 -185 c59 -43 60 -52 60
-465 0 -418 -2 -430 -62 -467 -63 -38 -146 -19 -182 40 -14 25 -16 75 -16 425
0 326 3 401 14 424 35 67 124 87 186 43z"/>
</g>
</svg>
