<?xml version="1.0" standalone="no"?>
<!DOCTYPE svg PUBLIC "-//W3C//DTD SVG 20010904//EN"
 "http://www.w3.org/TR/2001/REC-SVG-20010904/DTD/svg10.dtd">
<svg version="1.0" xmlns="http://www.w3.org/2000/svg"
 width="512.000000pt" height="512.000000pt" viewBox="0 0 512.000000 512.000000"
 preserveAspectRatio="xMidYMid meet">

<g transform="translate(0.000000,512.000000) scale(0.100000,-0.100000)"
fill="#000000" stroke="none">
<path d="M1031 5103 c-20 -18 -151 -339 -151 -373 0 -50 24 -60 489 -210 l452
-146 251 -225 c138 -123 267 -238 286 -255 l36 -31 -46 -59 c-54 -71 -60 -86
-47 -121 19 -51 73 -68 116 -38 11 8 116 134 233 280 116 146 216 265 220 265
5 0 352 -241 772 -536 488 -342 782 -554 814 -589 59 -61 84 -122 84 -204 0
-100 -8 -117 -166 -340 -35 -51 -44 -71 -39 -90 3 -15 128 -378 277 -809 148
-431 268 -786 265 -788 -7 -7 -531 -172 -535 -168 -2 1 -31 78 -65 170 -46
124 -68 172 -87 185 -24 18 -40 17 -560 -22 -587 -44 -668 -45 -745 -8 -60 28
-126 92 -155 149 -26 52 -270 1087 -270 1148 0 24 5 62 12 83 7 24 101 158
234 337 177 235 223 303 224 328 0 24 -37 83 -170 270 -94 131 -180 247 -191
257 -61 50 -155 -25 -118 -95 7 -12 77 -114 156 -225 94 -132 142 -207 137
-215 -5 -7 -94 -128 -199 -268 -105 -140 -201 -280 -215 -310 -17 -39 -25 -79
-28 -140 -3 -81 3 -112 127 -638 141 -597 150 -625 235 -714 52 -55 114 -97
186 -128 87 -36 189 -36 725 4 264 20 489 36 500 36 17 0 29 -25 74 -153 65
-183 74 -202 106 -223 24 -15 30 -15 86 1 34 9 65 13 69 8 4 -4 42 -113 85
-241 78 -236 92 -262 138 -262 10 0 113 27 230 60 169 49 217 66 235 86 12 14
22 33 22 42 0 40 -111 348 -131 365 -42 34 -111 10 -124 -46 -3 -12 11 -72 34
-139 l39 -117 -86 -26 c-48 -14 -102 -31 -120 -37 -18 -5 -35 -8 -38 -6 -2 3
-32 89 -67 192 -49 144 -61 189 -50 193 7 3 111 36 230 74 130 41 224 76 236
88 11 11 20 33 20 48 0 15 -116 363 -258 773 -142 410 -268 775 -280 811 l-23
67 73 101 c104 143 120 187 120 332 l0 116 -42 85 c-31 62 -58 99 -96 134 -30
27 -332 244 -673 483 -340 239 -700 492 -800 562 -99 71 -193 133 -207 138
-38 15 -67 1 -112 -55 -21 -27 -41 -52 -45 -57 -3 -4 -151 111 -328 256 l-323
263 -272 93 c-150 52 -368 127 -486 167 -118 41 -225 74 -237 74 -12 0 -31 -8
-43 -17z m806 -407 l153 -51 310 -254 c170 -139 310 -255 310 -258 0 -5 -111
-143 -116 -143 -2 0 -134 117 -294 261 -161 143 -304 265 -318 270 -15 6 -202
67 -417 136 -214 69 -392 127 -394 129 -3 3 32 99 51 136 7 15 39 6 285 -79
153 -52 347 -118 430 -147z"/>
<path d="M817 4200 c-14 -11 -68 -71 -120 -133 -440 -524 -697 -1029 -697
-1371 0 -365 252 -673 638 -778 108 -29 344 -31 452 -4 305 78 533 284 620
561 31 99 38 264 16 376 -39 192 -131 414 -269 644 -125 210 -363 528 -502
673 -58 59 -93 67 -138 32z m74 -199 c8 -10 57 -72 110 -137 296 -368 487
-710 556 -993 77 -319 -52 -599 -342 -742 -122 -60 -188 -74 -345 -74 -156 0
-229 18 -365 88 -101 52 -226 173 -273 264 -42 80 -72 199 -72 284 0 233 153
588 411 950 89 125 290 379 300 379 4 0 13 -8 20 -19z"/>
<path d="M1373 2900 c-12 -5 -29 -21 -39 -35 -15 -23 -15 -33 -4 -100 16 -96
8 -165 -30 -242 -38 -76 -91 -124 -187 -169 -40 -19 -77 -43 -83 -54 -28 -52
11 -120 68 -120 49 0 169 68 242 136 134 127 188 307 146 488 -19 81 -61 117
-113 96z"/>
<path d="M2924 2630 c-27 -11 -250 -268 -264 -304 -5 -15 -10 -40 -10 -55 0
-42 197 -899 217 -946 23 -52 87 -122 134 -145 82 -42 107 -43 420 -16 359 32
365 33 390 59 21 22 25 67 9 97 -20 37 -53 38 -381 7 -305 -28 -318 -29 -353
-12 -20 10 -45 30 -57 46 -13 19 -52 169 -121 468 l-101 439 88 101 c97 111
95 110 207 95 l45 -6 76 -242 77 -242 -61 -137 c-62 -141 -65 -161 -32 -199
22 -24 60 -30 92 -14 23 12 40 44 95 168 36 84 66 167 66 183 0 17 -32 127
-70 245 -38 118 -67 216 -65 218 2 3 48 1 102 -4 l98 -9 211 -580 c127 -350
219 -589 232 -602 43 -46 132 -11 132 50 0 22 -426 1202 -450 1247 -6 11 -19
24 -29 29 -10 6 -148 22 -307 36 -159 14 -307 27 -329 29 -22 3 -49 1 -61 -4z"/>
</g>
</svg>
